<svg width="20" height="20" viewBox="0 0 20 20" fill="none" xmlns="http://www.w3.org/2000/svg">
<path d="M10 20C15.5228 20 20 15.5228 20 10C20 4.47715 15.5228 0 10 0C4.47715 0 0 4.47715 0 10C0 15.5228 4.47715 20 10 20Z" fill="black"/>
<path d="M10.001 19.002C14.9715 19.002 19.001 14.9725 19.001 10.002C19.001 5.03139 14.9715 1.00195 10.001 1.00195C5.03042 1.00195 1.00098 5.03139 1.00098 10.002C1.00098 14.9725 5.03042 19.002 10.001 19.002Z" fill="#FAFAFA"/>
<path d="M9.99951 17.998C14.4178 17.998 17.9995 14.4163 17.9995 9.99805C17.9995 5.57977 14.4178 1.99805 9.99951 1.99805C5.58123 1.99805 1.99951 5.57977 1.99951 9.99805C1.99951 14.4163 5.58123 17.998 9.99951 17.998Z" fill="black"/>
<path fill-rule="evenodd" clip-rule="evenodd" d="M3.31787 9.29102C3.31787 9.29102 18.082 9.72982 16.6512 15.291C15.9389 16.4198 15.8512 15.691 15.8512 15.691C15.8512 15.691 18.2852 11.1457 3.31787 9.29102Z" fill="#FAFAFA"/>
<path fill-rule="evenodd" clip-rule="evenodd" d="M5.27588 5.86523C5.27588 5.86523 20.04 6.30403 18.6092 11.8652C17.8969 12.994 17.8092 12.2652 17.8092 12.2652C17.8092 12.2652 20.2432 7.7199 5.27588 5.86523Z" fill="#FAFAFA"/>
<path d="M8.72058 3.59961C8.75064 3.60051 16.4092 3.83385 17.83 6.39648L17.3895 6.91504C16.922 5.87794 15.0863 4.38843 8.72058 3.59961Z" fill="#FAFAFA"/>
<path fill-rule="evenodd" clip-rule="evenodd" d="M5.45898 13.9904C5.48859 13.9908 13.7293 14.1055 13.9676 17.2002L13.4287 17.5307C13.2582 16.5898 11.9628 14.9484 5.45898 13.9904Z" fill="#FAFAFA"/>
</svg>
