<svg width="20" height="20" viewBox="0 0 20 20" fill="none" xmlns="http://www.w3.org/2000/svg">
<path fill-rule="evenodd" clip-rule="evenodd" d="M11.7675 2.25036C9.71229 2.25036 7.74126 3.06679 6.28801 4.52004C4.83476 5.97329 4.01833 7.94432 4.01833 9.99953C4.01833 12.0547 4.83476 14.0258 6.28801 15.479C7.74126 16.9323 9.71229 17.7487 11.7675 17.7487V18.9162C6.8425 18.9162 2.85083 14.9237 2.85083 9.9987C2.85083 5.0737 6.84166 1.08203 11.7667 1.08203V2.24953L11.7675 2.25036ZM15.7275 5.31453C15.1118 4.79188 14.3989 4.3961 13.6297 4.14994C12.8605 3.90378 12.0503 3.8121 11.2455 3.88018C10.4408 3.94825 9.65746 4.17474 8.94056 4.54661C8.22366 4.91848 7.58735 5.42841 7.06821 6.04706C6.54907 6.6657 6.15735 7.38088 5.91557 8.15144C5.6738 8.92201 5.58673 9.73277 5.65938 10.5371C5.73204 11.3414 5.96298 12.1235 6.33892 12.8382C6.71487 13.553 7.2284 14.1864 7.85 14.702L7.09916 15.597C6.36511 14.9813 5.75953 14.227 5.31702 13.3772C4.87452 12.5274 4.60374 11.5987 4.52017 10.6443C4.43659 9.68983 4.54185 8.72826 4.82994 7.81448C5.11802 6.90071 5.58329 6.05264 6.19916 5.3187C6.81497 4.58461 7.56935 3.97902 8.41922 3.5365C9.26909 3.09398 10.1978 2.8232 11.1523 2.73963C12.1069 2.65606 13.0685 2.76132 13.9823 3.04942C14.8962 3.33752 15.7443 3.8028 16.4783 4.4187L15.7275 5.31453ZM13.8483 6.01786C12.7928 5.47266 11.5646 5.36641 10.4311 5.72223C9.29756 6.07806 8.35044 6.86716 7.79583 7.91781C7.24123 8.96847 7.12401 10.1956 7.4697 11.3323C7.81539 12.4689 8.596 13.4231 9.64166 13.987L9.095 15.0204C7.7889 14.3042 6.81675 13.1032 6.38832 11.6766C5.95989 10.25 6.10954 8.7121 6.80498 7.39485C7.50041 6.07759 8.68587 5.08657 10.1055 4.63564C11.5252 4.1847 13.0652 4.31001 14.3933 4.98453L13.8483 6.01786ZM11.7667 7.11536C11.0017 7.11536 10.2681 7.41923 9.72725 7.96012C9.18636 8.501 8.8825 9.2346 8.8825 9.99953C8.8825 10.7645 9.18636 11.4981 9.72725 12.0389C10.2681 12.5798 11.0017 12.8837 11.7667 12.8837V14.052C10.6919 14.052 9.6611 13.6251 8.90111 12.8651C8.14112 12.1051 7.71416 11.0743 7.71416 9.99953C7.71416 8.92474 8.14112 7.89397 8.90111 7.13398C9.6611 6.37399 10.6919 5.94703 11.7667 5.94703V7.11536Z" fill="#D4D4D4"/>
<path fill-rule="evenodd" clip-rule="evenodd" d="M12.8392 9.03094C12.715 8.89716 12.5718 8.78232 12.4142 8.69011C12.277 8.60856 12.1205 8.56486 11.9609 8.56344C11.7484 8.56344 11.5584 8.60261 11.3909 8.68011C11.229 8.75304 11.0835 8.85797 10.9632 8.98857C10.8429 9.11918 10.7503 9.27277 10.6909 9.44011C10.6292 9.60927 10.5992 9.78677 10.5992 9.96594C10.5992 10.1476 10.6292 10.3243 10.6909 10.4918C10.7508 10.6589 10.8436 10.8124 10.9638 10.9431C11.0841 11.0738 11.2293 11.179 11.3909 11.2526C11.5576 11.3301 11.7492 11.3693 11.9609 11.3693C12.1409 11.3693 12.3084 11.3309 12.4626 11.2568C12.6192 11.1818 12.7542 11.0693 12.8584 10.9301L13.6317 11.7684C13.5151 11.8851 13.3817 11.9859 13.2301 12.0709C12.9496 12.2274 12.6443 12.3345 12.3276 12.3876C12.1859 12.4093 12.0634 12.4209 11.9609 12.4209C11.6246 12.423 11.2908 12.3637 10.9759 12.2459C10.6781 12.1358 10.4057 11.9666 10.1751 11.7484C9.94568 11.5293 9.76311 11.2659 9.63839 10.9743C9.50286 10.6556 9.43531 10.3122 9.44005 9.96594C9.44005 9.59594 9.50672 9.26011 9.63839 8.95761C9.76339 8.66594 9.94505 8.40261 10.1742 8.18344C10.4059 7.96594 10.6784 7.79677 10.9759 7.68677C11.2908 7.56898 11.6246 7.50967 11.9609 7.51177C12.2567 7.51177 12.5542 7.56844 12.8542 7.68177C13.1551 7.79677 13.4251 7.98177 13.6409 8.22261L12.8392 9.03094Z" fill="#D4D4D4"/>
</svg>
