<svg width="154" height="154" viewBox="0 0 154 154" fill="none" xmlns="http://www.w3.org/2000/svg">
<mask id="mask0_2024_36638" style="mask-type:luminance" maskUnits="userSpaceOnUse" x="0" y="0" width="155" height="155">
<path d="M0 0H154.006V154.006H0V0Z" fill="white"/>
</mask>
<g mask="url(#mask0_2024_36638)">
<path fill-rule="evenodd" clip-rule="evenodd" d="M49.8953 91.6962C54.0408 91.6962 62.2864 91.4688 73.6847 86.7762C86.9655 81.308 113.39 71.381 132.453 61.1848C145.784 54.0535 151.628 44.621 151.628 31.9191C151.628 14.2909 137.337 0 119.709 0H45.8476C20.5281 0 0 20.5272 0 45.8485C0 71.169 19.2191 91.6962 49.8953 91.6962Z" fill="white"/>
<path fill-rule="evenodd" clip-rule="evenodd" d="M62.3879 123.269C62.388 117.199 64.1868 111.266 67.5572 106.218C70.9276 101.17 75.7184 97.2344 81.3244 94.908L104.585 85.2545C128.112 75.4896 154.009 92.78 154.009 118.254C154.009 137.99 138.007 153.987 118.27 153.982L93.0868 153.976C76.1307 153.971 62.3879 140.225 62.3879 123.269Z" fill="white"/>
<path d="M26.4302 97.7402C11.8322 97.7402 0 109.572 0 124.17V127.593C0 142.189 11.8331 154.022 26.4293 154.022C41.0263 154.022 52.8595 142.189 52.8595 127.593V124.17C52.8595 109.572 41.0263 97.7402 26.4302 97.7402Z" fill="white"/>
</g>
</svg>
