<svg width="20" height="20" viewBox="0 0 20 20" fill="none" xmlns="http://www.w3.org/2000/svg">
<g clip-path="url(#clip0_1940_35590)">
<path fill-rule="evenodd" clip-rule="evenodd" d="M2.74504 6.5175C2.23824 6.51684 1.75238 6.31522 1.39402 5.95686C1.03566 5.59849 0.834036 5.11264 0.833374 4.60583C0.833815 4.09889 1.03534 3.61282 1.39372 3.25427C1.75211 2.89573 2.23809 2.694 2.74504 2.69333C3.25228 2.69355 3.73869 2.89509 4.09743 3.25368C4.45618 3.61228 4.65793 4.0986 4.65837 4.60583C4.65749 5.11278 4.45555 5.59867 4.09685 5.9569C3.73815 6.31514 3.25199 6.51728 2.74504 6.5175ZM2.74504 3.44417C2.44434 3.45555 2.15976 3.58301 1.95104 3.79978C1.74233 4.01655 1.62573 4.30575 1.62573 4.60667C1.62573 4.90758 1.74233 5.19679 1.95104 5.41355C2.15976 5.63032 2.44434 5.75778 2.74504 5.76917C3.04574 5.75778 3.33033 5.63032 3.53904 5.41355C3.74775 5.19679 3.86435 4.90758 3.86435 4.60667C3.86435 4.30575 3.74775 4.01655 3.53904 3.79978C3.33033 3.58301 3.04574 3.45555 2.74504 3.44417ZM2.74504 11.9108C2.23809 11.9102 1.75211 11.7084 1.39372 11.3499C1.03534 10.9913 0.833815 10.5053 0.833374 9.99833C0.834036 9.49153 1.03566 9.00568 1.39402 8.64731C1.75238 8.28895 2.23824 8.08733 2.74504 8.08667C3.25199 8.08711 3.73806 8.28863 4.0966 8.64702C4.45514 9.0054 4.65688 9.49139 4.65754 9.99833C4.6571 10.5054 4.45546 10.9916 4.09689 11.3502C3.73833 11.7088 3.25213 11.9104 2.74504 11.9108ZM2.74504 8.8375C2.44456 8.84888 2.16018 8.97625 1.95162 9.19286C1.74306 9.40948 1.62655 9.69847 1.62655 9.99917C1.62655 10.2999 1.74306 10.5889 1.95162 10.8055C2.16018 11.0221 2.44456 11.1494 2.74504 11.1608C2.90129 11.1668 3.05714 11.1411 3.20324 11.0854C3.34935 11.0297 3.48271 10.945 3.59535 10.8366C3.70799 10.7281 3.7976 10.5981 3.8588 10.4542C3.92 10.3103 3.95155 10.1555 3.95155 9.99917C3.95155 9.8428 3.92 9.68804 3.8588 9.54415C3.7976 9.40026 3.70799 9.2702 3.59535 9.16174C3.48271 9.05329 3.34935 8.96867 3.20324 8.91296C3.05714 8.85724 2.90129 8.83158 2.74504 8.8375ZM2.74504 17.3008C2.23824 17.3002 1.75238 17.0986 1.39402 16.7402C1.03566 16.3818 0.834036 15.896 0.833374 15.3892C0.833815 14.8822 1.03534 14.3961 1.39372 14.0376C1.75211 13.6791 2.23809 13.4773 2.74504 13.4767C3.25213 13.4771 3.73833 13.6787 4.09689 14.0373C4.45546 14.3959 4.6571 14.8821 4.65754 15.3892C4.65688 15.8961 4.45514 16.3821 4.0966 16.7405C3.73806 17.0989 3.25199 17.3004 2.74504 17.3008ZM2.74504 14.2275C2.44434 14.2389 2.15976 14.3663 1.95104 14.5831C1.74233 14.7999 1.62573 15.0891 1.62573 15.39C1.62573 15.6909 1.74233 15.9801 1.95104 16.1969C2.15976 16.4137 2.44434 16.5411 2.74504 16.5525C3.04574 16.5411 3.33033 16.4137 3.53904 16.1969C3.74775 15.9801 3.86435 15.6909 3.86435 15.39C3.86435 15.0891 3.74775 14.7999 3.53904 14.5831C3.33033 14.3663 3.04574 14.2389 2.74504 14.2275ZM17.2817 6.5175C16.7748 6.51706 16.2887 6.31554 15.9301 5.95715C15.5716 5.59876 15.3699 5.11278 15.3692 4.60583C15.3696 4.09889 15.5712 3.61282 15.9296 3.25427C16.2879 2.89573 16.7739 2.694 17.2809 2.69333C17.788 2.69377 18.2742 2.89541 18.6327 3.25398C18.9913 3.61255 19.1929 4.09874 19.1934 4.60583C19.1927 5.11264 18.9911 5.59849 18.6327 5.95686C18.2744 6.31522 17.7885 6.51684 17.2817 6.5175ZM17.2817 3.44417C17.0516 3.444 16.8265 3.51211 16.6351 3.63988C16.4436 3.76764 16.2944 3.94932 16.2063 4.16193C16.1181 4.37453 16.095 4.60851 16.1399 4.83425C16.1847 5.05999 16.2955 5.26736 16.4583 5.4301C16.621 5.59285 16.8284 5.70366 17.0541 5.74852C17.2799 5.79338 17.5138 5.77027 17.7264 5.68212C17.9391 5.59397 18.1207 5.44473 18.2485 5.25329C18.3763 5.06186 18.4444 4.83682 18.4442 4.60667C18.4442 3.965 17.9225 3.44417 17.2817 3.44417ZM17.2817 11.9108C16.7746 11.9104 16.2884 11.7088 15.9299 11.3502C15.5713 10.9916 15.3696 10.5054 15.3692 9.99833C15.3699 9.49153 15.5715 9.00568 15.9299 8.64731C16.2882 8.28895 16.7741 8.08733 17.2809 8.08667C17.7878 8.08711 18.2739 8.28863 18.6324 8.64702C18.991 9.0054 19.1927 9.49139 19.1934 9.99833C19.1929 10.5053 18.9914 10.9913 18.633 11.3499C18.2746 11.7084 17.7887 11.9102 17.2817 11.9108ZM17.2817 8.8375C16.6409 8.8375 16.1192 9.35833 16.1192 9.99833C16.1306 10.299 16.2581 10.5836 16.4748 10.7923C16.6916 11.001 16.9808 11.1176 17.2817 11.1176C17.5826 11.1176 17.8718 11.001 18.0886 10.7923C18.3054 10.5836 18.4328 10.299 18.4442 9.99833C18.4442 9.35667 17.9225 8.8375 17.2817 8.8375ZM17.2817 17.3008C16.7748 17.3004 16.2887 17.0989 15.9301 16.7405C15.5716 16.3821 15.3699 15.8961 15.3692 15.3892C15.3696 14.8822 15.5712 14.3961 15.9296 14.0376C16.2879 13.6791 16.7739 13.4773 17.2809 13.4767C17.788 13.4771 18.2742 13.6787 18.6327 14.0373C18.9913 14.3959 19.1929 14.8821 19.1934 15.3892C19.1927 15.896 18.9911 16.3818 18.6327 16.7402C18.2744 17.0986 17.7885 17.3002 17.2817 17.3008ZM17.2817 14.2275C17.0516 14.2273 16.8265 14.2954 16.6351 14.4232C16.4436 14.551 16.2944 14.7327 16.2063 14.9453C16.1181 15.1579 16.095 15.3918 16.1399 15.6176C16.1847 15.8433 16.2955 16.0507 16.4583 16.2134C16.621 16.3762 16.8284 16.487 17.0541 16.5319C17.2799 16.5767 17.5138 16.5536 17.7264 16.4655C17.9391 16.3773 18.1207 16.2281 18.2485 16.0366C18.3763 15.8452 18.4444 15.6202 18.4442 15.39C18.4442 14.7483 17.9225 14.2275 17.2817 14.2275ZM10.0134 9.21417C9.50657 9.2135 9.02072 9.01188 8.66235 8.65352C8.30399 8.29516 8.10237 7.8093 8.10171 7.3025C8.10215 6.79555 8.30367 6.30948 8.66206 5.95094C9.02045 5.5924 9.50643 5.39066 10.0134 5.39C10.5205 5.39044 11.0067 5.59208 11.3652 5.95065C11.7238 6.30921 11.9254 6.79541 11.9259 7.3025C11.9252 7.80945 11.7235 8.29543 11.3649 8.65382C11.0064 9.0122 10.5203 9.21373 10.0134 9.21417ZM10.0134 6.14083C9.78322 6.14067 9.55818 6.20878 9.36675 6.33654C9.17531 6.46431 9.02607 6.64599 8.93792 6.85859C8.84977 7.0712 8.82666 7.30517 8.87152 7.53092C8.91638 7.75666 9.0272 7.96402 9.18994 8.12677C9.35269 8.28951 9.56005 8.40033 9.78579 8.44519C10.0115 8.49005 10.2455 8.46694 10.4581 8.37879C10.6707 8.29063 10.8524 8.1414 10.9802 7.94996C11.1079 7.75852 11.176 7.53349 11.1759 7.30333C11.1759 6.66167 10.655 6.14083 10.0134 6.14083ZM10.0142 3.82417C9.50712 3.82373 9.02092 3.62209 8.66235 3.26352C8.30379 2.90495 8.10215 2.41876 8.10171 1.91167C8.10237 1.40472 8.3041 0.918738 8.66265 0.560351C9.02119 0.201963 9.50726 0.000440967 10.0142 0C10.521 0.000661479 11.0069 0.202281 11.3652 0.560645C11.7236 0.919009 11.9252 1.40486 11.9259 1.91167C11.9254 2.41861 11.7239 2.90468 11.3655 3.26323C11.0071 3.62177 10.5212 3.8235 10.0142 3.82417ZM10.0142 0.750833C9.78405 0.750669 9.55902 0.818778 9.36758 0.946543C9.17614 1.07431 9.02691 1.25599 8.93875 1.46859C8.8506 1.6812 8.82749 1.91517 8.87235 2.14092C8.91721 2.36666 9.02803 2.57402 9.19077 2.73677C9.35352 2.89951 9.56088 3.01033 9.78662 3.05519C10.0124 3.10005 10.2463 3.07694 10.4589 2.98879C10.6716 2.90063 10.8532 2.7514 10.981 2.55996C11.1088 2.36852 11.1769 2.14349 11.1767 1.91333C11.1767 1.27167 10.655 0.750833 10.0142 0.750833ZM10.0142 14.6075C9.50712 14.6071 9.02092 14.4054 8.66235 14.0469C8.30379 13.6883 8.10215 13.2021 8.10171 12.695C8.10237 12.1881 8.3041 11.7021 8.66265 11.3437C9.02119 10.9853 9.50726 10.7838 10.0142 10.7833C10.521 10.784 11.0069 10.9856 11.3652 11.344C11.7236 11.7023 11.9252 12.1882 11.9259 12.695C11.9254 13.2019 11.7239 13.688 11.3655 14.0466C11.0071 14.4051 10.5212 14.6068 10.0142 14.6075ZM10.0142 11.5342C9.78405 11.534 9.55902 11.6021 9.36758 11.7299C9.17614 11.8576 9.02691 12.0393 8.93875 12.2519C8.8506 12.4645 8.82749 12.6985 8.87235 12.9243C8.91721 13.15 9.02803 13.3574 9.19077 13.5201C9.35352 13.6828 9.56088 13.7937 9.78662 13.8385C10.0124 13.8834 10.2463 13.8603 10.4589 13.7721C10.6716 13.684 10.8532 13.5347 10.981 13.3433C11.1088 13.1519 11.1769 12.9268 11.1767 12.6967C11.1767 12.055 10.655 11.5342 10.0142 11.5342ZM10.0134 20C9.50643 19.9993 9.02045 19.7976 8.66206 19.4391C8.30367 19.0805 8.10215 18.5944 8.10171 18.0875C8.10237 17.5807 8.30399 17.0948 8.66235 16.7365C9.02072 16.3781 9.50657 16.1765 10.0134 16.1758C10.5203 16.1763 11.0064 16.3778 11.3649 16.7362C11.7235 17.0946 11.9252 17.5806 11.9259 18.0875C11.9254 18.5946 11.7238 19.0808 11.3652 19.4394C11.0067 19.7979 10.5205 19.9996 10.0134 20ZM10.0134 16.9267C9.78322 16.9265 9.55818 16.9946 9.36675 17.1224C9.17531 17.2501 9.02607 17.4318 8.93792 17.6444C8.84977 17.857 8.82666 18.091 8.87152 18.3167C8.91638 18.5425 9.0272 18.7499 9.18994 18.9126C9.35269 19.0753 9.56005 19.1862 9.78579 19.231C10.0115 19.2759 10.2455 19.2528 10.4581 19.1646C10.6707 19.0765 10.8524 18.9272 10.9802 18.7358C11.1079 18.5444 11.176 18.3193 11.1759 18.0892C11.1759 17.4475 10.655 16.9267 10.0134 16.9267Z" fill="#D4D4D4"/>
<path fill-rule="evenodd" clip-rule="evenodd" d="M6.96919 6.85162C6.89013 6.85179 6.81177 6.8368 6.73835 6.80745L5.49335 6.31079C5.41475 6.28208 5.34272 6.23788 5.28152 6.18082C5.22032 6.12375 5.1712 6.05497 5.13708 5.97857C5.10296 5.90216 5.08453 5.81968 5.08288 5.73602C5.08124 5.65236 5.09641 5.56922 5.12749 5.49153C5.15858 5.41384 5.20495 5.34318 5.26386 5.28375C5.32276 5.22432 5.393 5.17732 5.47041 5.14554C5.54782 5.11376 5.63083 5.09785 5.7145 5.09875C5.79817 5.09965 5.88081 5.11735 5.95752 5.15079L7.20169 5.64662C7.33632 5.70068 7.44796 5.79988 7.51745 5.92724C7.58695 6.05459 7.60998 6.20215 7.58259 6.34462C7.5552 6.48709 7.47909 6.6156 7.36733 6.7081C7.25556 6.8006 7.1151 6.85134 6.97002 6.85162H6.96919ZM6.96919 12.1383C6.89013 12.1384 6.81177 12.1234 6.73835 12.0941L5.49335 11.5983C5.33942 11.5367 5.21624 11.4166 5.15091 11.2642C5.08559 11.1118 5.08347 10.9397 5.14502 10.7858C5.20657 10.6319 5.32675 10.5087 5.47913 10.4433C5.6315 10.378 5.80358 10.3759 5.95752 10.4375L7.20169 10.9341C7.33579 10.9885 7.44687 11.0878 7.51595 11.2149C7.58504 11.3421 7.60786 11.4893 7.58052 11.6314C7.55318 11.7735 7.47738 11.9017 7.36604 11.9941C7.2547 12.0866 7.11473 12.1375 6.97002 12.1383H6.96919ZM14.27 9.49746C14.1909 9.49738 14.1125 9.4821 14.0392 9.45246L12.795 8.95662C12.7153 8.92883 12.6421 8.8852 12.5798 8.82835C12.5174 8.7715 12.4672 8.70261 12.4322 8.62584C12.3972 8.54907 12.3781 8.466 12.376 8.38165C12.374 8.29729 12.3891 8.2134 12.4203 8.13502C12.4516 8.05664 12.4983 7.9854 12.5579 7.92559C12.6174 7.86579 12.6884 7.81865 12.7666 7.78703C12.8449 7.75541 12.9287 7.73996 13.0131 7.74161C13.0974 7.74326 13.1806 7.76197 13.2575 7.79662L14.5017 8.29246C14.6363 8.34651 14.748 8.44572 14.8175 8.57307C14.887 8.70042 14.91 8.84798 14.8826 8.99045C14.8552 9.13293 14.7791 9.26143 14.6673 9.35393C14.5556 9.44644 14.4151 9.49718 14.27 9.49746ZM14.27 4.20829C14.1909 4.20815 14.1126 4.19288 14.0392 4.16329L12.795 3.66662C12.6482 3.6005 12.5326 3.48026 12.4722 3.33096C12.4119 3.18167 12.4115 3.01486 12.4711 2.86528C12.5308 2.71571 12.6458 2.59492 12.7923 2.5281C12.9388 2.46129 13.1055 2.45359 13.2575 2.50662L14.5017 3.00329C14.6358 3.05768 14.7469 3.15692 14.816 3.28408C14.885 3.41124 14.9079 3.55843 14.8805 3.70054C14.8532 3.84265 14.7774 3.97087 14.666 4.06331C14.5547 4.15576 14.4147 4.2067 14.27 4.20745V4.20829ZM14.27 14.7825C14.191 14.7826 14.1126 14.7676 14.0392 14.7383L12.7942 14.2416C12.715 14.2134 12.6423 14.1695 12.5805 14.1126C12.5187 14.0556 12.469 13.9868 12.4344 13.9102C12.3998 13.8335 12.381 13.7507 12.3791 13.6667C12.3773 13.5827 12.3924 13.4991 12.4236 13.421C12.4547 13.343 12.5013 13.272 12.5606 13.2124C12.6198 13.1527 12.6905 13.1057 12.7684 13.074C12.8462 13.0423 12.9297 13.0266 13.0137 13.028C13.0978 13.0293 13.1807 13.0475 13.2575 13.0816L14.5017 13.5783C14.6358 13.6327 14.7469 13.7319 14.816 13.8591C14.885 13.9862 14.9079 14.1334 14.8805 14.2755C14.8532 14.4177 14.7774 14.5459 14.666 14.6383C14.5547 14.7308 14.4147 14.7817 14.27 14.7825ZM5.75835 14.9716C5.61357 14.9711 5.47347 14.9203 5.36199 14.8279C5.2505 14.7355 5.17455 14.6073 5.1471 14.4651C5.11965 14.323 5.14241 14.1757 5.21149 14.0484C5.28057 13.9212 5.39168 13.8219 5.52585 13.7675L6.77085 13.2716C6.92468 13.2102 7.09661 13.2124 7.24883 13.2777C7.40105 13.343 7.52108 13.4661 7.58252 13.62C7.64396 13.7738 7.64178 13.9457 7.57645 14.0979C7.51113 14.2501 7.38801 14.3702 7.23419 14.4316L5.99002 14.9275C5.9166 14.9568 5.83741 14.9718 5.75835 14.9716ZM5.75835 9.71662C5.6132 9.71654 5.47261 9.66593 5.36069 9.5735C5.24878 9.48106 5.17253 9.35255 5.14503 9.21003C5.11753 9.06751 5.1405 8.91986 5.20999 8.79242C5.27948 8.66498 5.39115 8.5657 5.52585 8.51162L6.77085 8.01579C6.92315 7.96152 7.09056 7.96839 7.2379 8.03494C7.38525 8.10149 7.50107 8.22255 7.56104 8.3727C7.62102 8.52284 7.62047 8.69039 7.55952 8.84014C7.49857 8.98989 7.38196 9.1102 7.23419 9.17579L5.99002 9.67162C5.9166 9.70095 5.83824 9.71594 5.75919 9.71579L5.75835 9.71662ZM5.75835 4.19412C5.6132 4.19404 5.47261 4.14343 5.36069 4.051C5.24878 3.95856 5.17253 3.83005 5.14503 3.68753C5.11753 3.54501 5.1405 3.39736 5.20999 3.26992C5.27948 3.14248 5.39115 3.0432 5.52585 2.98912L6.77085 2.49329C6.92315 2.43902 7.09056 2.44589 7.2379 2.51244C7.38525 2.57899 7.50107 2.70005 7.56104 2.8502C7.62102 3.00034 7.62047 3.16789 7.55952 3.31764C7.49857 3.46739 7.38196 3.5877 7.23419 3.65329L5.99002 4.14996C5.91659 4.17926 5.83741 4.19425 5.75835 4.19412ZM6.96919 17.8033C6.89013 17.8034 6.81177 17.7884 6.73835 17.7591L5.49335 17.2625C5.34653 17.1963 5.2309 17.0761 5.17056 16.9268C5.11022 16.7775 5.10982 16.6107 5.16946 16.4611C5.22909 16.3115 5.34416 16.1908 5.49066 16.1239C5.63717 16.0571 5.80381 16.0494 5.95585 16.1025L7.20085 16.5983C7.33549 16.6523 7.44712 16.7515 7.51662 16.8789C7.58612 17.0063 7.60914 17.1538 7.58175 17.2963C7.55436 17.4388 7.47826 17.5673 7.3665 17.6598C7.25473 17.7523 7.11427 17.803 6.96919 17.8033ZM13.025 6.85245C12.8796 6.85266 12.7386 6.80213 12.6264 6.70957C12.5142 6.61701 12.4378 6.48821 12.4104 6.34538C12.3829 6.20254 12.4061 6.0546 12.4761 5.92705C12.546 5.7995 12.6582 5.70033 12.7934 5.64662L14.0384 5.15079C14.1918 5.09196 14.3621 5.0959 14.5127 5.16176C14.6632 5.22761 14.7817 5.35008 14.8426 5.50266C14.9035 5.65525 14.9019 5.82568 14.8381 5.97707C14.7743 6.12847 14.6534 6.24865 14.5017 6.31162L13.2567 6.80745C13.1836 6.83694 13.1055 6.85221 13.0267 6.85245H13.025ZM13.025 12.1391C12.8799 12.1388 12.7395 12.0881 12.6277 11.9956C12.5159 11.9031 12.4398 11.7746 12.4125 11.6321C12.3851 11.4896 12.4081 11.3421 12.4776 11.2147C12.5471 11.0874 12.6587 10.9882 12.7934 10.9341L14.0384 10.4375C14.1924 10.376 14.3645 10.3783 14.5169 10.4438C14.6693 10.5092 14.7894 10.6326 14.8509 10.7866C14.9123 10.9407 14.91 11.1128 14.8445 11.2652C14.7791 11.4176 14.6557 11.5377 14.5017 11.5991L13.2567 12.095C13.1835 12.1242 13.1055 12.1392 13.0267 12.1391H13.025ZM13.025 17.8025C12.8798 17.8027 12.739 17.7523 12.6269 17.6599C12.5148 17.5675 12.4385 17.4389 12.411 17.2962C12.3836 17.1536 12.4068 17.0058 12.4766 16.8784C12.5463 16.751 12.6584 16.652 12.7934 16.5983L14.0384 16.1025C14.1153 16.0678 14.1984 16.0491 14.2828 16.0474C14.3672 16.0458 14.451 16.0612 14.5292 16.0929C14.6075 16.1245 14.6785 16.1716 14.738 16.2314C14.7975 16.2912 14.8443 16.3625 14.8756 16.4408C14.9068 16.5192 14.9219 16.6031 14.9198 16.6875C14.9178 16.7718 14.8987 16.8549 14.8637 16.9317C14.8287 17.0084 14.7785 17.0773 14.7161 17.1342C14.6537 17.191 14.5805 17.2347 14.5009 17.2625L13.2559 17.7583C13.1824 17.7877 13.1041 17.8026 13.025 17.8025Z" fill="#D4D4D4"/>
</g>
<defs>
<clipPath id="clip0_1940_35590">
<rect width="20" height="20" fill="white"/>
</clipPath>
</defs>
</svg>
