<svg width="20" height="20" viewBox="0 0 20 20" fill="none" xmlns="http://www.w3.org/2000/svg">
<path d="M17.05 9.04649C15.6632 8.44953 14.4499 7.63057 13.4094 6.59059C12.3695 5.55064 11.5505 4.33675 10.9535 2.94998C10.7243 2.4185 10.5402 1.87217 10.399 1.31204C10.353 1.12891 10.1888 1 10 1C9.81124 1 9.64703 1.12891 9.60102 1.31204C9.45981 1.87217 9.27566 2.41798 9.04649 2.94998C8.44953 4.33675 7.63057 5.55064 6.59059 6.59059C5.55064 7.63057 4.33675 8.44953 2.94998 9.04649C2.41849 9.27566 1.87217 9.4598 1.31204 9.60102C1.12891 9.64703 1 9.81124 1 10C1 10.1888 1.12891 10.353 1.31204 10.399C1.87217 10.5402 2.41798 10.7243 2.94998 10.9535C4.33675 11.5505 5.55014 12.3695 6.59059 13.4094C7.63107 14.4494 8.44953 15.6632 9.04649 17.05C9.27566 17.5815 9.45981 18.1278 9.60102 18.688C9.64703 18.8711 9.81124 19 10 19C10.1888 19 10.353 18.8711 10.399 18.688C10.5402 18.1278 10.7243 17.582 10.9535 17.05C11.5505 15.6632 12.3695 14.4499 13.4094 13.4094C14.4494 12.3695 15.6632 11.5505 17.05 10.9535C17.5815 10.7243 18.1278 10.5402 18.688 10.399C18.8711 10.353 19 10.1888 19 10C19 9.81124 18.8711 9.64703 18.688 9.60102C18.1278 9.4598 17.582 9.27566 17.05 9.04649Z" fill="#D4D4D4"/>
</svg>
