<svg width="20" height="20" viewBox="0 0 20 20" fill="none" xmlns="http://www.w3.org/2000/svg">
<path fill-rule="evenodd" clip-rule="evenodd" d="M10.03 1.66627C6.81913 1.6371 4.19663 4.16627 4.16663 7.3171C4.13746 10.4688 6.71246 13.0438 9.92329 13.0729H11.94V10.9346H10.03C8.02413 10.9579 6.37996 9.3796 6.35663 7.4096C6.33246 5.44127 7.94079 3.82793 9.94663 3.8046H10.03C12.0358 3.8046 13.6616 5.40043 13.6675 7.3696V12.6238C13.6675 14.5754 12.0475 16.1654 10.065 16.1896C9.11901 16.1829 8.2127 15.8088 7.53746 15.1463L5.99496 16.6613C7.07129 17.7186 8.51543 18.3177 10.0241 18.3329H10.1008C13.27 18.2863 15.8158 15.7638 15.8333 12.6529V7.23627C15.7558 4.13543 13.1808 1.66627 10.03 1.66627Z" fill="#D4D4D4"/>
</svg>
