<svg width="20" height="20" viewBox="0 0 20 20" fill="none" xmlns="http://www.w3.org/2000/svg">
<path fill-rule="evenodd" clip-rule="evenodd" d="M18.205 0C18.63 0 19.0377 0.168834 19.3382 0.469361C19.6387 0.769888 19.8075 1.17749 19.8075 1.6025C19.8075 2.02751 19.6387 2.43511 19.3382 2.73564C19.0377 3.03617 18.63 3.205 18.205 3.205H16.7917C16.7669 3.20511 16.7423 3.20032 16.7194 3.1909C16.6964 3.18149 16.6756 3.16763 16.658 3.15013C16.6404 3.13263 16.6265 3.11184 16.617 3.08893C16.6074 3.06603 16.6025 3.04147 16.6025 3.01667V1.6025C16.6025 0.7175 17.32 0 18.205 0Z" fill="#D4D4D4"/>
<path fill-rule="evenodd" clip-rule="evenodd" d="M9.22083 9.3319L15.2683 3.3319C15.3825 3.21857 15.3183 2.99023 15.1717 2.99023H11.9167C11.8984 2.99044 11.8804 2.99431 11.8636 3.00161C11.8469 3.00891 11.8318 3.01949 11.8192 3.03273L5.3025 9.49607C5.20083 9.59607 5.05083 9.5069 5.05083 9.3469V3.18273C5.05083 3.0769 4.98167 2.99107 4.89667 2.99107H2.655C2.56917 2.99107 2.5 3.0769 2.5 3.18273V16.4744C2.5 16.5811 2.56917 16.6661 2.655 16.6661H4.89667C4.9825 16.6661 5.05167 16.5811 5.05167 16.4744V13.7661C5.05167 13.7086 5.0725 13.6536 5.10917 13.6177L7.12917 11.6127C7.15062 11.5896 7.17967 11.5749 7.21102 11.5714C7.24238 11.5679 7.27395 11.5758 7.3 11.5936L12.7033 15.5702C13.5615 16.1549 14.5491 16.5218 15.5808 16.6394C15.6708 16.6494 15.7475 16.5602 15.7475 16.4477V13.8977C15.7475 13.8002 15.6892 13.7211 15.6108 13.7086C15.0053 13.6107 14.4287 13.3812 13.9217 13.0361L9.24417 9.6494C9.14667 9.5844 9.13417 9.4169 9.22083 9.3319Z" fill="#D4D4D4"/>
</svg>
