<svg width="20" height="20" viewBox="0 0 20 20" fill="none" xmlns="http://www.w3.org/2000/svg">
<path d="M17.813 8.3673C18.2269 7.14159 18.0844 5.79887 17.4226 4.68397C16.4272 2.97394 14.4263 2.09417 12.4721 2.50818C11.6027 1.54178 10.3537 0.992208 9.04425 1.00008C7.04673 0.995583 5.27439 2.26461 4.65985 4.14003C3.37663 4.39934 2.26898 5.19192 1.62082 6.31526C0.618065 8.0208 0.846663 10.1707 2.18632 11.6332C1.77245 12.859 1.91497 14.2017 2.57682 15.3166C3.57216 17.0266 5.5731 17.9064 7.5273 17.4924C8.39608 18.4588 9.64567 19.0083 10.9551 18.9999C12.9538 19.005 14.7267 17.7348 15.3412 15.8577C16.6245 15.5984 17.7321 14.8058 18.3803 13.6825C19.3819 11.9769 19.1527 9.82871 17.8136 8.36618L17.813 8.3673ZM10.9563 17.8237C10.1565 17.8248 9.38173 17.5486 8.76777 17.0429C8.7957 17.0283 8.84416 17.0019 8.87551 16.9827L12.508 14.9127C12.6938 14.8086 12.8078 14.6134 12.8067 14.4025V9.34945L14.3419 10.2242C14.3584 10.232 14.3693 10.2478 14.3715 10.2658V14.4503C14.3693 16.3111 12.8421 17.8198 10.9563 17.8237ZM3.6115 14.7282C3.21074 14.0453 3.06651 13.2448 3.2039 12.468C3.23069 12.4838 3.27801 12.5125 3.31164 12.5316L6.94412 14.6016C7.12825 14.7079 7.35628 14.7079 7.54098 14.6016L11.9755 12.0748V13.8242C11.9767 13.8422 11.9681 13.8597 11.9539 13.8709L8.28207 15.9629C6.64654 16.8922 4.55781 16.3398 3.61207 14.7282H3.6115ZM2.65549 6.90421C3.05454 6.2202 3.68447 5.69706 4.43468 5.42537C4.43468 5.4563 4.43297 5.51087 4.43297 5.54912V9.68977C4.43183 9.90015 4.54584 10.0953 4.73111 10.1994L9.16568 12.7256L7.63048 13.6004C7.61509 13.6105 7.59571 13.6122 7.57861 13.6049L3.90622 11.5112C2.27412 10.5785 1.71431 8.51806 2.65492 6.90477L2.65549 6.90421ZM15.2688 9.80058L10.8343 7.27378L12.3695 6.39964C12.3849 6.38951 12.4042 6.38782 12.4213 6.39514L16.0937 8.48712C17.7287 9.4192 18.2891 11.4831 17.3445 13.0963C16.9448 13.7792 16.3155 14.3024 15.5658 14.5746V10.3102C15.5675 10.0998 15.4541 9.90521 15.2694 9.80058H15.2688ZM16.7966 7.53141C16.7698 7.5151 16.7225 7.48697 16.6889 7.46785L13.0564 5.3978C12.8723 5.29149 12.6442 5.29149 12.4595 5.3978L8.02497 7.92461V6.17519C8.02383 6.15719 8.03238 6.13976 8.04663 6.12851L11.7184 4.03821C13.354 3.10725 15.445 3.66133 16.3879 5.27574C16.7864 5.9575 16.9306 6.75571 16.7955 7.53141H16.7966ZM7.19039 10.6494L5.65462 9.77471C5.63809 9.76683 5.62726 9.75108 5.62498 9.73308V5.54856C5.62612 3.68552 7.1579 2.17573 9.04596 2.17686C9.84463 2.17686 10.6176 2.45361 11.2316 2.95763C11.2037 2.97225 11.1558 2.99869 11.1239 3.01781L7.49138 5.08786C7.30554 5.19192 7.19153 5.38655 7.19267 5.59749L7.19039 10.6483V10.6494ZM8.0244 8.87525L9.99969 7.74967L11.975 8.87469V11.1253L9.99969 12.2503L8.0244 11.1253V8.87525Z" fill="#D4D4D4"/>
</svg>
