<svg width="20" height="20" viewBox="0 0 20 20" fill="none" xmlns="http://www.w3.org/2000/svg">
<mask id="mask0_1940_35557" style="mask-type:luminance" maskUnits="userSpaceOnUse" x="2" y="2" width="16" height="16">
<path d="M2 2H18V18H2V2Z" fill="white"/>
</mask>
<g mask="url(#mask0_1940_35557)">
<path fill-rule="evenodd" clip-rule="evenodd" d="M13.2027 3.30472L18.016 6.04138V6.09938L13.1533 8.80669L13.1647 7.39538L12.6173 7.37538C11.9113 7.35669 11.5433 7.37669 11.1053 7.44869C10.396 7.56538 9.74666 7.83337 9.00734 8.35003L7.56334 9.35338C7.374 9.48338 7.23334 9.57738 7.11 9.65669L6.76666 9.87138L6.502 10.0274L6.75866 10.1807L7.112 10.406C7.42934 10.6154 7.892 10.9367 8.91266 11.65C9.65266 12.1667 10.3013 12.4347 11.0107 12.5514L11.2107 12.5814C11.6733 12.642 12.1273 12.644 13.094 12.6034L13.1087 11.164L17.922 13.9007V13.9587L13.0593 16.6667L13.0687 15.4254L12.6453 15.44C11.7213 15.468 11.2207 15.4414 10.5533 15.332C9.424 15.1454 8.38 14.7147 7.29934 13.9594L5.86066 12.9594C5.69519 12.8453 5.52738 12.7346 5.35734 12.6274L5.046 12.4407C4.87788 12.3438 4.70897 12.2483 4.53934 12.154C3.93866 11.82 2.37531 11.4107 2 11.4107V8.59203L2.09334 8.59469C2.46934 8.59003 4.03334 8.18003 4.63266 7.84538L5.31 7.45869L5.602 7.27603C5.88734 7.08938 6.31666 6.79203 7.39266 6.04069C8.47334 5.28537 9.51666 4.85403 10.6467 4.66803C11.4147 4.54138 11.9627 4.52603 13.1893 4.57603L13.2027 3.30472Z" fill="#D4D4D4"/>
</g>
</svg>
