<svg width="20" height="20" viewBox="0 0 20 20" fill="none" xmlns="http://www.w3.org/2000/svg">
<path fill-rule="evenodd" clip-rule="evenodd" d="M16.4875 0V6.06H18.75V14.6833H16.3042V20L10.44 14.8383V19.9592H9.53083V14.8325L3.66 20V14.6125H1.25V5.99H3.65333V0L9.53083 5.41167V0.158333H10.4392V5.56667L16.4875 0ZM10.44 7.53667V13.6358L15.395 17.9975V12.0333L10.44 7.53667ZM9.52417 7.47L4.56917 11.9683V17.9975L9.52417 13.6358V7.47083V7.47ZM16.3042 13.7867H17.8408V6.9575H11.2167L16.3042 11.5742V13.7867ZM8.81917 6.88667H2.15833V13.7158H3.65833V11.5692L8.81833 6.88583L8.81917 6.88667ZM4.5625 2.06333V5.98833H8.825L4.5625 2.06333ZM15.5783 2.06333L11.3158 5.98833H15.5783V2.06333Z" fill="#D4D4D4"/>
</svg>
