<svg width="20" height="20" viewBox="0 0 20 20" fill="none" xmlns="http://www.w3.org/2000/svg">
<g clip-path="url(#clip0_1940_35595)">
<path fill-rule="evenodd" clip-rule="evenodd" d="M19.3308 3.75216C19.0025 3.18344 18.5654 2.68496 18.0444 2.28519C17.5234 1.88543 16.9288 1.5922 16.2945 1.42227C15.6601 1.25233 14.9986 1.20901 14.3475 1.29479C13.6964 1.38056 13.0686 1.59374 12.5 1.92216C11.7706 2.34073 11.1591 2.93729 10.7227 3.65615C10.2862 4.37502 10.039 5.19274 10.0042 6.033L15.0008 6.03966V6.46883H10.0042C10.0367 7.24966 10.2525 8.02716 10.6708 8.75216C10.9925 9.33338 11.4267 9.84468 11.9482 10.2562C12.4696 10.6677 13.0679 10.9712 13.708 11.1489C14.348 11.3266 15.0171 11.375 15.6761 11.2912C16.3351 11.2075 16.9707 10.9932 17.546 10.661C18.1213 10.3288 18.6245 9.88533 19.0265 9.35644C19.4284 8.82755 19.7209 8.22387 19.8869 7.58067C20.0529 6.93746 20.0891 6.26762 19.9934 5.61028C19.8976 4.95293 19.6718 4.32126 19.3292 3.75216H19.3308Z" fill="#D4D4D4"/>
<path fill-rule="evenodd" clip-rule="evenodd" d="M0.670785 3.74946C0.342331 4.31807 0.129098 4.94582 0.0432647 5.59684C-0.042569 6.24787 0.00067736 6.90943 0.170534 7.54374C0.340391 8.17806 0.633531 8.7727 1.03322 9.29371C1.4329 9.81473 1.9313 10.2519 2.49995 10.5803C3.22718 11.0028 4.04963 11.2341 4.89049 11.2526C5.73134 11.2711 6.56317 11.0762 7.30829 10.6861L4.81579 6.35529L5.18745 6.14113L7.68495 10.4678C8.32417 10.0608 8.86254 9.51393 9.25936 8.86837C9.65619 8.22281 9.90109 7.4955 9.97556 6.7414C10.05 5.9873 9.95213 5.22614 9.68925 4.51543C9.42637 3.80472 9.00539 3.16306 8.45812 2.63893C7.91085 2.11481 7.25161 1.72193 6.53021 1.48999C5.80881 1.25804 5.04413 1.1931 4.29395 1.30007C3.54377 1.40704 2.82771 1.68312 2.1999 2.10745C1.57208 2.53178 1.04975 3.09326 0.670785 3.74946Z" fill="#D4D4D4"/>
<path fill-rule="evenodd" clip-rule="evenodd" d="M9.99996 19.9121C11.3259 19.9119 12.5975 19.385 13.535 18.4473C14.4725 17.5097 14.9991 16.238 14.9991 14.9121C14.9991 13.1371 14.0825 11.5821 12.6866 10.6954L10.1825 15.0196L9.81246 14.8046L12.31 10.4779C11.6379 10.1278 10.895 9.93492 10.1375 9.91401C9.37993 9.8931 8.62755 10.0447 7.93719 10.3572C7.24683 10.6698 6.63655 11.1352 6.15248 11.7183C5.66841 12.3014 5.32321 12.9869 5.14298 13.723C4.96274 14.459 4.95219 15.2265 5.11211 15.9672C5.27203 16.708 5.59824 17.4027 6.06609 17.9989C6.53394 18.5951 7.13119 19.0771 7.8127 19.4085C8.4942 19.74 9.24213 19.9122 9.99996 19.9121Z" fill="#D4D4D4"/>
</g>
<defs>
<clipPath id="clip0_1940_35595">
<rect width="20" height="20" fill="white"/>
</clipPath>
</defs>
</svg>
