<svg width="36" height="36" viewBox="0 0 36 36" fill="none" xmlns="http://www.w3.org/2000/svg">
<path d="M18 36C27.9411 36 36 27.9411 36 18C36 8.05887 27.9411 0 18 0C8.05888 0 0 8.05887 0 18C0 27.9411 8.05888 36 18 36Z" fill="black"/>
<path d="M18 1.80664C26.9469 1.80664 34.2001 9.05991 34.2002 18.0068C34.2002 26.9538 26.947 34.207 18 34.207C9.05322 34.2068 1.7998 26.9537 1.7998 18.0068C1.79991 9.06008 9.05329 1.80692 18 1.80664ZM18 3.60645C10.0474 3.60672 3.60069 10.0542 3.60059 18.0068C3.60059 25.9596 10.0473 32.407 18 32.4072C20.1562 32.4072 22.2017 31.9324 24.0381 31.083C23.3831 29.3537 20.5072 26.7559 9.8252 25.1826C9.86684 25.1832 23.9686 25.378 25.0781 30.5488C26.4531 29.7712 27.6872 28.7745 28.7334 27.6055C29.1155 25.6139 28.3504 19.4996 5.97168 16.7266C5.97168 16.7266 29.3618 17.4218 30.1279 25.7734C31.2115 24.0849 31.9507 22.1554 32.25 20.083C31.7388 17.4427 28.0286 12.8541 9.49609 10.5576C9.56958 10.5598 27.3046 11.1007 32.3467 16.7686C32.2093 15.1566 31.8071 13.6207 31.1826 12.2041C30.165 10.3542 26.666 7.83953 15.6982 6.48047C15.6982 6.48047 24.5509 6.74482 29.4053 9.21582C26.7718 5.80453 22.6427 3.60645 18 3.60645Z" fill="white"/>
</svg>
