<svg viewBox="0 0 667 120" fill="none" xmlns="http://www.w3.org/2000/svg">
<path d="M60 120C93.1371 120 120 93.1371 120 60C120 26.8629 93.1371 0 60 0C26.8629 0 0 26.8629 0 60C0 93.1371 26.8629 120 60 120Z" fill="black"/>
<path d="M60 114C89.8234 114 114 89.8234 114 60C114 30.1766 89.8234 6 60 6C30.1766 6 6 30.1766 6 60C6 89.8234 30.1766 114 60 114Z" fill="white"/>
<path d="M60 108C86.5097 108 108 86.5097 108 60C108 33.4903 86.5097 12 60 12C33.4903 12 12 33.4903 12 60C12 86.5097 33.4903 108 60 108Z" fill="black"/>
<path fill-rule="evenodd" clip-rule="evenodd" d="M19.9062 55.7438C19.9062 55.7438 108.491 58.3766 99.9062 91.7438C95.6327 98.5166 95.1063 94.1438 95.1063 94.1438C95.1063 94.1438 109.71 66.8718 19.9062 55.7438Z" fill="white"/>
<path fill-rule="evenodd" clip-rule="evenodd" d="M31.6523 35.1812C31.6523 35.1812 120.237 37.814 111.652 71.1812C107.379 77.954 106.852 73.5812 106.852 73.5812C106.852 73.5812 121.456 46.3092 31.6523 35.1812Z" fill="white"/>
<path d="M52.3281 21.6C52.3281 21.6 98.4733 22.9724 107 38.3881L104.354 41.4974C101.555 35.2745 90.5372 26.3346 52.3281 21.6Z" fill="white"/>
<path fill-rule="evenodd" clip-rule="evenodd" d="M32.75 83.9319C32.7646 83.9321 82.3599 84.591 83.808 103.181L80.5722 105.163C79.5423 99.5159 71.7509 89.6761 32.75 83.9319Z" fill="white"/>
<path d="M615.082 89.0057V30.9946H640.193C645.386 30.9946 649.862 31.851 653.619 33.5637C657.376 35.2211 660.276 37.6245 662.32 40.7736C664.365 43.9228 665.387 47.6797 665.387 52.0444C665.387 56.3537 664.365 60.083 662.32 63.2322C660.276 66.3261 657.376 68.7018 653.619 70.3593C649.862 72.0167 645.386 72.8455 640.193 72.8455H622.541L628.508 66.9615V89.0057H615.082ZM651.961 89.0057L637.458 67.956H651.795L666.464 89.0057H651.961ZM628.508 68.4532L622.541 62.1549H639.447C643.591 62.1549 646.685 61.2709 648.729 59.5029C650.773 57.6797 651.795 55.1935 651.795 52.0444C651.795 48.8399 650.773 46.3537 648.729 44.5858C646.685 42.8178 643.591 41.9339 639.447 41.9339H622.541L628.508 35.5526V68.4532Z" fill="white"/>
<path d="M571.829 54.3648H599.757V64.8068H571.829V54.3648ZM572.823 78.2322H604.398V89.0057H559.48V30.9946H603.321V41.7681H572.823V78.2322Z" fill="white"/>
<path d="M516.262 89.0057L491.234 30.9946H505.737L527.616 82.3758H519.08L541.291 30.9946H554.633L529.522 89.0057H516.262Z" fill="white"/>
<path d="M458.98 90C454.394 90 450.14 89.2541 446.217 87.7624C442.35 86.2707 438.98 84.1713 436.107 81.4641C433.289 78.7569 431.079 75.5801 429.477 71.9337C427.93 68.2873 427.156 64.3094 427.156 60C427.156 55.6906 427.93 51.7127 429.477 48.0663C431.079 44.4199 433.317 41.2431 436.19 38.5359C439.063 35.8287 442.433 33.7293 446.3 32.2376C450.168 30.7459 454.367 30 458.897 30C463.483 30 467.682 30.7459 471.494 32.2376C475.362 33.7293 478.704 35.8287 481.522 38.5359C484.395 41.2431 486.632 44.4199 488.235 48.0663C489.837 51.6575 490.638 55.6354 490.638 60C490.638 64.3094 489.837 68.3149 488.235 72.0166C486.632 75.663 484.395 78.8398 481.522 81.547C478.704 84.1989 475.362 86.2707 471.494 87.7624C467.682 89.2541 463.51 90 458.98 90ZM458.897 78.5635C461.494 78.5635 463.87 78.1215 466.024 77.2376C468.234 76.3536 470.168 75.0829 471.826 73.4254C473.483 71.768 474.754 69.8066 475.638 67.5414C476.577 65.2762 477.047 62.7624 477.047 60C477.047 57.2376 476.577 54.7238 475.638 52.4586C474.754 50.1934 473.483 48.232 471.826 46.5746C470.223 44.9171 468.317 43.6464 466.107 42.7624C463.897 41.8785 461.494 41.4365 458.897 41.4365C456.3 41.4365 453.897 41.8785 451.687 42.7624C449.532 43.6464 447.626 44.9171 445.969 46.5746C444.311 48.232 443.013 50.1934 442.074 52.4586C441.19 54.7238 440.748 57.2376 440.748 60C440.748 62.7072 441.19 65.221 442.074 67.5414C443.013 69.8066 444.284 71.768 445.886 73.4254C447.543 75.0829 449.477 76.3536 451.687 77.2376C453.897 78.1215 456.3 78.5635 458.897 78.5635Z" fill="white"/>
<path d="M370.855 89.0057V30.9946H395.966C401.16 30.9946 405.635 31.851 409.392 33.5637C413.149 35.2211 416.05 37.6245 418.094 40.7736C420.138 43.9228 421.16 47.6797 421.16 52.0444C421.16 56.3537 420.138 60.083 418.094 63.2322C416.05 66.3261 413.149 68.7018 409.392 70.3593C405.635 72.0167 401.16 72.8455 395.966 72.8455H378.314L384.281 66.9615V89.0057H370.855ZM407.735 89.0057L393.232 67.956H407.569L422.238 89.0057H407.735ZM384.281 68.4532L378.314 62.1549H395.221C399.364 62.1549 402.458 61.2709 404.502 59.5029C406.547 57.6797 407.569 55.1935 407.569 52.0444C407.569 48.8399 406.547 46.3537 404.502 44.5858C402.458 42.8178 399.364 41.9339 395.221 41.9339H378.314L384.281 35.5526V68.4532Z" fill="white"/>
<path d="M328.606 54.3648H356.535V64.8068H328.606V54.3648ZM329.601 78.2322H361.176V89.0057H316.258V30.9946H360.098V41.7681H329.601V78.2322Z" fill="white"/>
<path d="M277.048 89.0057V41.9339H253.305L258.484 30.9946H309.038V41.9339H290.474V89.0057H277.048Z" fill="white"/>
<path d="M224.572 89.0057V65.304L227.639 73.4256L202.113 30.9946H216.368L235.926 63.5637H227.721L247.363 30.9946H260.54L235.014 73.4256L237.998 65.304V89.0057H224.572Z" fill="white"/>
<path d="M150 89.0057V30.9946H178.343C185.636 30.9946 191.106 32.3758 194.752 35.1383C198.454 37.9007 200.305 41.5471 200.305 46.0775C200.305 49.1162 199.559 51.7681 198.067 54.0333C196.575 56.2432 194.531 57.9559 191.934 59.1714C189.338 60.3869 186.354 60.9946 182.984 60.9946L184.559 57.5968C188.205 57.5968 191.437 58.2046 194.255 59.42C197.073 60.5803 199.255 62.3206 200.802 64.641C202.404 66.9615 203.205 69.8068 203.205 73.1769C203.205 78.1493 201.244 82.0443 197.321 84.862C193.399 87.6244 187.625 89.0057 180.001 89.0057H150ZM163.343 78.8952H179.006C182.487 78.8952 185.111 78.3427 186.879 77.2377C188.702 76.0775 189.614 74.2543 189.614 71.7681C189.614 69.3372 188.702 67.5416 186.879 66.3814C185.111 65.1659 182.487 64.5582 179.006 64.5582H162.348V54.7791H176.686C179.945 54.7791 182.432 54.2267 184.144 53.1217C185.912 51.9615 186.796 50.2211 186.796 47.9007C186.796 45.6355 185.912 43.9504 184.144 42.8454C182.432 41.6852 179.945 41.1051 176.686 41.1051H163.343V78.8952Z" fill="white"/>
</svg>
