<svg width="120" height="85" viewBox="0 0 120 85" fill="none" xmlns="http://www.w3.org/2000/svg">
<path d="M0 82.875C0 83.7034 0.671573 84.375 1.5 84.375H118.5C119.328 84.375 120 83.7034 120 82.875V1.5C120 0.671575 119.328 0 118.5 0H1.5C0.671571 0 0 0.671573 0 1.5V82.875ZM72.2118 20.6987C71.626 20.1129 71.626 19.1632 72.2118 18.5774L75.0618 15.7274C75.6475 15.1416 76.5973 15.1416 77.1831 15.7274L80.0331 18.5774C80.6189 19.1632 81.5686 19.1632 82.1544 18.5774L85.0044 15.7274C85.5902 15.1416 86.54 15.1416 87.1257 15.7274L89.9757 18.5774C90.5615 19.1632 90.5615 20.1129 89.9757 20.6987L87.1257 23.5487C86.54 24.1345 86.54 25.0842 87.1257 25.67L89.9757 28.52C90.5615 29.1058 90.5615 30.0556 89.9757 30.6414L87.1257 33.4914C86.54 34.0772 85.5902 34.0772 85.0044 33.4914L82.1544 30.6414C81.5686 30.0556 80.6189 30.0556 80.0331 30.6414L77.1831 33.4914C76.5973 34.0772 75.6475 34.0772 75.0618 33.4914L72.2118 30.6414C71.626 30.0556 71.626 29.1058 72.2118 28.52L75.0618 25.67C75.6475 25.0842 75.6475 24.1345 75.0618 23.5487L72.2118 20.6987ZM84.6094 66.7969V68.8125C84.6094 69.6409 83.9378 70.3125 83.1094 70.3125H79.0781C78.2497 70.3125 77.5781 69.6409 77.5781 68.8125V66.7969C77.5781 57.1048 69.6921 49.2188 60 49.2188C50.3079 49.2188 42.4219 57.1048 42.4219 66.7969V68.8125C42.4219 69.6409 41.7503 70.3125 40.9219 70.3125H36.8906C36.0622 70.3125 35.3906 69.6409 35.3906 68.8125V66.7969C35.3906 53.2287 46.4318 42.1875 60 42.1875C73.5682 42.1875 84.6094 53.2287 84.6094 66.7969ZM30.0243 20.6987C29.4385 20.1129 29.4385 19.1632 30.0243 18.5774L32.8743 15.7274C33.46 15.1416 34.4098 15.1416 34.9956 15.7274L37.8456 18.5774C38.4314 19.1632 39.3811 19.1632 39.9669 18.5774L42.8169 15.7274C43.4027 15.1416 44.3525 15.1416 44.9382 15.7274L47.7882 18.5774C48.374 19.1632 48.374 20.1129 47.7882 20.6987L44.9382 23.5487C44.3525 24.1345 44.3525 25.0842 44.9382 25.67L47.7882 28.52C48.374 29.1058 48.374 30.0556 47.7882 30.6414L44.9382 33.4914C44.3525 34.0772 43.4027 34.0772 42.8169 33.4914L39.9669 30.6414C39.3811 30.0556 38.4314 30.0556 37.8456 30.6414L34.9956 33.4914C34.4098 34.0772 33.46 34.0772 32.8743 33.4914L30.0243 30.6414C29.4385 30.0556 29.4385 29.1058 30.0243 28.52L32.8743 25.67C33.46 25.0842 33.46 24.1345 32.8743 23.5487L30.0243 20.6987Z" fill="url(#paint0_linear_1755_36361)" fill-opacity="0.15"/>
<path d="M1.5 0.75H118.5C118.914 0.75 119.25 1.08579 119.25 1.5V82.875C119.25 83.2892 118.914 83.625 118.5 83.625H1.5C1.08579 83.625 0.75 83.2892 0.75 82.875V1.5C0.75 1.08579 1.08579 0.75 1.5 0.75ZM60 41.4375C46.0176 41.4375 34.6406 52.8145 34.6406 66.7969V68.8125C34.6406 70.0551 35.648 71.0625 36.8906 71.0625H40.9219C42.1645 71.0625 43.1719 70.0551 43.1719 68.8125V66.7969C43.1719 57.519 50.7221 49.9688 60 49.9688C69.2779 49.9688 76.8281 57.519 76.8281 66.7969V68.8125C76.8281 70.0551 77.8355 71.0625 79.0781 71.0625H83.1094C84.352 71.0625 85.3594 70.0551 85.3594 68.8125V66.7969C85.3594 52.8145 73.9824 41.4375 60 41.4375ZM45.4688 15.1973C44.5901 14.3186 43.1648 14.3186 42.2861 15.1973L39.4365 18.0469C39.1436 18.3398 38.6689 18.3398 38.376 18.0469L35.5264 15.1973C34.6477 14.3186 33.2224 14.3186 32.3438 15.1973L29.4941 18.0469C28.6155 18.9256 28.6155 20.3508 29.4941 21.2295L32.3438 24.0791C32.6366 24.372 32.6366 24.8468 32.3438 25.1396L29.4941 27.9893C28.6155 28.8679 28.6155 30.2932 29.4941 31.1719L32.3438 34.0215C33.2224 34.9002 34.6477 34.9002 35.5264 34.0215L38.376 31.1719C38.6689 30.879 39.1436 30.879 39.4365 31.1719L42.2861 34.0215C43.1648 34.9002 44.5901 34.9002 45.4688 34.0215L48.3184 31.1719C49.197 30.2932 49.197 28.8679 48.3184 27.9893L45.4688 25.1396C45.1759 24.8468 45.1759 24.372 45.4688 24.0791L48.3184 21.2295C49.197 20.3508 49.197 18.9256 48.3184 18.0469L45.4688 15.1973ZM87.6562 15.1973C86.7776 14.3186 85.3523 14.3186 84.4736 15.1973L81.624 18.0469C81.3311 18.3398 80.8564 18.3398 80.5635 18.0469L77.7139 15.1973C76.8352 14.3186 75.4099 14.3186 74.5312 15.1973L71.6816 18.0469C70.803 18.9256 70.803 20.3508 71.6816 21.2295L74.5312 24.0791C74.8241 24.372 74.8241 24.8468 74.5312 25.1396L71.6816 27.9893C70.803 28.8679 70.803 30.2932 71.6816 31.1719L74.5312 34.0215C75.4099 34.9002 76.8352 34.9002 77.7139 34.0215L80.5635 31.1719C80.8564 30.879 81.3311 30.879 81.624 31.1719L84.4736 34.0215C85.3523 34.9002 86.7776 34.9002 87.6562 34.0215L90.5059 31.1719C91.3845 30.2932 91.3845 28.8679 90.5059 27.9893L87.6562 25.1396C87.3634 24.8468 87.3634 24.372 87.6562 24.0791L90.5059 21.2295C91.3845 20.3508 91.3845 18.9256 90.5059 18.0469L87.6562 15.1973Z" stroke="url(#paint1_linear_1755_36361)" stroke-opacity="0.5" stroke-width="1.5"/>
<defs>
<linearGradient id="paint0_linear_1755_36361" x1="17.9848" y1="9.91287" x2="93.828" y2="99.8405" gradientUnits="userSpaceOnUse">
<stop stop-color="white"/>
<stop offset="1" stop-color="#999999" stop-opacity="0.5"/>
</linearGradient>
<linearGradient id="paint1_linear_1755_36361" x1="15.3936" y1="-2.77579e-06" x2="244.874" y2="286.826" gradientUnits="userSpaceOnUse">
<stop stop-color="white" stop-opacity="0.5"/>
<stop offset="1" stop-color="#999999" stop-opacity="0"/>
</linearGradient>
</defs>
</svg>
